<svg width="25" height="22" viewBox="0 0 25 22" fill="none" xmlns="http://www.w3.org/2000/svg">
<path d="M22.6562 0H2.34375C1.0498 0 0 1.0498 0 2.34375V19.5312C0 20.8252 1.0498 21.875 2.34375 21.875H22.6562C23.9502 21.875 25 20.8252 25 19.5312V2.34375C25 1.0498 23.9502 0 22.6562 0ZM18.5742 14.1846C18.8086 14.4189 18.8086 14.7998 18.5742 15.0342L16.5967 17.0117C16.3623 17.2461 15.9814 17.2461 15.7471 17.0117L12.5 13.7354L9.25293 17.0117C9.01855 17.2461 8.6377 17.2461 8.40332 17.0117L6.42578 15.0342C6.19141 14.7998 6.19141 14.4189 6.42578 14.1846L9.70215 10.9375L6.42578 7.69043C6.19141 7.45605 6.19141 7.0752 6.42578 6.84082L8.40332 4.86328C8.6377 4.62891 9.01855 4.62891 9.25293 4.86328L12.5 8.13965L15.7471 4.86328C15.9814 4.62891 16.3623 4.62891 16.5967 4.86328L18.5742 6.84082C18.8086 7.0752 18.8086 7.45605 18.5742 7.69043L15.2979 10.9375L18.5742 14.1846Z" fill="#494848"/>
</svg>
