<svg width="25" height="20" viewBox="0 0 25 20" fill="none" xmlns="http://www.w3.org/2000/svg">
<path d="M12.468 11.0622L3.97063 19.5595C3.38332 20.1468 2.43361 20.1468 1.85255 19.5595L0.440487 18.1475C-0.146829 17.5601 -0.146829 16.6104 0.440487 16.0294L6.4636 10.0062L0.440487 3.98313C-0.146829 3.39581 -0.146829 2.44611 0.440487 1.86504L1.8463 0.440487C2.43361 -0.146829 3.38332 -0.146829 3.96439 0.440487L12.4617 8.93783C13.0553 9.52515 13.0553 10.4749 12.468 11.0622ZM24.4642 8.93783L15.9669 0.440487C15.3796 -0.146829 14.4299 -0.146829 13.8488 0.440487L12.4367 1.85255C11.8494 2.43986 11.8494 3.38957 12.4367 3.97063L18.4599 9.99375L12.4367 16.0169C11.8494 16.6042 11.8494 17.5539 12.4367 18.135L13.8488 19.547C14.4361 20.1343 15.3858 20.1343 15.9669 19.547L24.4642 11.0497C25.0515 10.4749 25.0515 9.52515 24.4642 8.93783Z" fill="#494848"/>
</svg>
