<svg width="30" height="31" viewBox="0 0 30 31" fill="none" xmlns="http://www.w3.org/2000/svg">
<g clip-path="url(#clip0_478_3752)">
<path d="M15.1467 1.20339C18.9793 1.21027 22.459 2.72056 25.0282 5.17573L27.0937 3.11019C27.9682 2.23579 29.4632 2.85508 29.4632 4.09169V11.8449C29.4632 12.6115 28.8418 13.2329 28.0752 13.2329H20.322C19.0854 13.2329 18.4661 11.7378 19.3405 10.8634L21.7551 8.4488C19.9701 6.77745 17.6604 5.85164 15.2065 5.83048C9.86276 5.78432 5.35834 10.1089 5.40455 15.63C5.44839 20.8675 9.69457 25.2624 15.1203 25.2624C17.4989 25.2624 19.7469 24.4135 21.5185 22.8591C21.7928 22.6184 22.2071 22.633 22.4651 22.891L24.7589 25.1849C25.0407 25.4666 25.0268 25.926 24.7311 26.1931C22.1878 28.4903 18.8175 29.8892 15.1203 29.8892C7.19903 29.8892 0.777524 23.4677 0.777466 15.5464C0.777408 7.63415 7.23442 1.18922 15.1467 1.20339Z" fill="#494848"/>
</g>
<defs>
<clipPath id="clip0_478_3752">
<rect width="29.6111" height="29.6111" fill="white" transform="translate(0.314819 0.740723)"/>
</clipPath>
</defs>
</svg>
