<svg width="29" height="25" viewBox="0 0 29 25" fill="none" xmlns="http://www.w3.org/2000/svg">
<path d="M19.6535 4.82337C16.5702 4.82337 14.0236 3.12498 10.147 3.12498C8.71111 3.12498 7.42486 3.33905 6.23172 3.71156C6.39708 3.34509 6.46745 2.95269 6.43806 2.56107C6.3361 1.17259 4.99479 0.0588696 3.35675 0.00232655C1.51588 -0.0612477 0 1.18631 0 2.73436C0 3.66336 0.546454 4.48363 1.38095 4.97777V23.8281C1.38095 24.4753 1.99922 25 2.7619 25H3.68254C4.44523 25 5.06349 24.4753 5.06349 23.8281V19.2187C6.6925 18.6297 8.72198 18.1386 11.648 18.1386C14.7315 18.1386 17.278 19.837 21.1546 19.837C23.9262 19.837 26.1414 19.0414 28.2035 17.8419C28.7031 17.5514 29 17.0689 29 16.5549V4.6848C29 3.54256 27.6036 2.78685 26.3828 3.268C24.407 4.04671 21.9837 4.82337 19.6535 4.82337Z" fill="#0417C0"/>
</svg>
