<svg width="31" height="32" viewBox="0 0 31 32" fill="none" xmlns="http://www.w3.org/2000/svg">
<g clip-path="url(#clip0_478_3756)">
<path d="M29.9449 17.1184C31.0555 16.0079 31.0555 14.2073 29.9449 13.0968L20.4657 3.6176C19.3552 2.50705 17.5547 2.507 16.444 3.6176L1.27737 18.7843C0.166822 19.8948 0.166822 21.6954 1.27737 22.8059L6.96487 28.4934C7.4982 29.0267 8.22153 29.3263 8.97575 29.3263H30.0669C30.4595 29.3263 30.7778 29.008 30.7778 28.6154V26.2456C30.7778 25.853 30.4595 25.5347 30.0669 25.5347H21.5287L29.9449 17.1184ZM12.0158 13.4081L20.1545 21.5467L16.1665 25.5347H9.36843L4.62884 20.7951L12.0158 13.4081Z" fill="#494848"/>
</g>
<defs>
<clipPath id="clip0_478_3756">
<rect width="30.3333" height="30.3333" fill="white" transform="translate(0.444458 0.888916)"/>
</clipPath>
</defs>
</svg>
