<svg width="50" height="50" viewBox="0 0 50 50" fill="none" xmlns="http://www.w3.org/2000/svg">
<path d="M28.6042 31.25L20.4792 45.3333C23.5521 46.0202 26.7408 46.0001 29.8048 45.2747C32.8688 44.5493 35.728 43.1375 38.1667 41.1458L30.5417 27.9166M5.12503 31.25C7.04169 37.3333 11.6875 42.2083 17.6042 44.4583L25.25 31.25M17.7917 25L9.66669 10.9375C6.11452 14.7567 4.14821 19.7842 4.16669 25C4.16669 26.4166 4.31253 27.8125 4.58336 29.1666H20.1875M45.4167 20.8333H29.8125L30.4167 21.875L40.3334 39.0625C43.873 35.2354 45.8373 30.213 45.8334 25C45.8334 23.5625 45.6875 22.1666 45.4167 20.8333ZM44.875 18.75C42.9584 12.6458 38.3125 7.79163 32.3959 5.54163L24.75 18.75M19.5834 21.875L29.5209 4.66663C28.0625 4.35413 26.5625 4.16663 25 4.16663C20 4.16663 15.4167 5.91663 11.8334 8.85413L19.4584 22.0833L19.5834 21.875Z" fill="#111111"/>
</svg>
