<svg width="50" height="50" viewBox="0 0 50 50" fill="none" xmlns="http://www.w3.org/2000/svg">
<path d="M25 16.6666C27.2101 16.6666 29.3298 17.5446 30.8926 19.1074C32.4554 20.6702 33.3333 22.7898 33.3333 25C33.3333 27.2101 32.4554 29.3297 30.8926 30.8925C29.3298 32.4553 27.2101 33.3333 25 33.3333C22.7899 33.3333 20.6702 32.4553 19.1074 30.8925C17.5446 29.3297 16.6667 27.2101 16.6667 25C16.6667 22.7898 17.5446 20.6702 19.1074 19.1074C20.6702 17.5446 22.7899 16.6666 25 16.6666ZM25 20.8333C23.8949 20.8333 22.8351 21.2723 22.0537 22.0537C21.2723 22.8351 20.8333 23.8949 20.8333 25C20.8333 26.105 21.2723 27.1648 22.0537 27.9462C22.8351 28.7276 23.8949 29.1666 25 29.1666C26.1051 29.1666 27.1649 28.7276 27.9463 27.9462C28.7277 27.1648 29.1667 26.105 29.1667 25C29.1667 23.8949 28.7277 22.8351 27.9463 22.0537C27.1649 21.2723 26.1051 20.8333 25 20.8333ZM20.8333 45.8333C20.3125 45.8333 19.875 45.4583 19.7917 44.9583L19.0208 39.4375C17.7083 38.9166 16.5833 38.2083 15.5 37.375L10.3125 39.4791C9.85417 39.6458 9.29167 39.4791 9.04167 39.0208L4.875 31.8125C4.74749 31.5978 4.70254 31.344 4.74855 31.0986C4.79456 30.8532 4.92839 30.633 5.125 30.4791L9.52083 27.0208L9.375 25L9.52083 22.9166L5.125 19.5208C4.92839 19.3669 4.79456 19.1467 4.74855 18.9013C4.70254 18.6559 4.74749 18.4021 4.875 18.1875L9.04167 10.9791C9.29167 10.5208 9.85417 10.3333 10.3125 10.5208L15.5 12.6041C16.5833 11.7916 17.7083 11.0833 19.0208 10.5625L19.7917 5.04163C19.875 4.54163 20.3125 4.16663 20.8333 4.16663H29.1667C29.6875 4.16663 30.125 4.54163 30.2083 5.04163L30.9792 10.5625C32.2917 11.0833 33.4167 11.7916 34.5 12.6041L39.6875 10.5208C40.1458 10.3333 40.7083 10.5208 40.9583 10.9791L45.125 18.1875C45.3958 18.6458 45.2708 19.2083 44.875 19.5208L40.4792 22.9166L40.625 25L40.4792 27.0833L44.875 30.4791C45.2708 30.7916 45.3958 31.3541 45.125 31.8125L40.9583 39.0208C40.7083 39.4791 40.1458 39.6666 39.6875 39.4791L34.5 37.3958C33.4167 38.2083 32.2917 38.9166 30.9792 39.4375L30.2083 44.9583C30.125 45.4583 29.6875 45.8333 29.1667 45.8333H20.8333ZM23.4375 8.33329L22.6667 13.7708C20.1667 14.2916 17.9583 15.625 16.3542 17.4791L11.3333 15.3125L9.77083 18.0208L14.1667 21.25C13.3333 23.6805 13.3333 26.3194 14.1667 28.75L9.75 32L11.3125 34.7083L16.375 32.5416C17.9792 34.375 20.1667 35.7083 22.6458 36.2083L23.4167 41.6666H26.5833L27.3542 36.2291C29.8333 35.7083 32.0208 34.375 33.625 32.5416L38.6875 34.7083L40.25 32L35.8333 28.7708C36.6667 26.3333 36.6667 23.6875 35.8333 21.25L40.2292 18.0208L38.6667 15.3125L33.6458 17.4791C32.0088 15.584 29.7882 14.2868 27.3333 13.7916L26.5625 8.33329H23.4375Z" fill="#111111"/>
</svg>
