<svg width="50" height="50" viewBox="0 0 50 50" fill="none" xmlns="http://www.w3.org/2000/svg">
<path d="M25 4.16663C22.2641 4.16663 19.555 4.7055 17.0274 5.75247C14.4998 6.79944 12.2031 8.33401 10.2686 10.2686C6.36156 14.1756 4.16663 19.4746 4.16663 25C4.16663 30.5253 6.36156 35.8243 10.2686 39.7313C12.2031 41.6659 14.4998 43.2005 17.0274 44.2474C19.555 45.2944 22.2641 45.8333 25 45.8333C30.5253 45.8333 35.8243 43.6384 39.7313 39.7313C43.6384 35.8243 45.8333 30.5253 45.8333 25C45.8333 22.5833 45.3958 20.1875 44.5625 17.9375L41.2291 21.2708C41.5208 22.5 41.6666 23.75 41.6666 25C41.6666 29.4202 39.9107 33.6595 36.7851 36.7851C33.6595 39.9107 29.4202 41.6666 25 41.6666C20.5797 41.6666 16.3405 39.9107 13.2148 36.7851C10.0892 33.6595 8.33329 29.4202 8.33329 25C8.33329 20.5797 10.0892 16.3405 13.2148 13.2148C16.3405 10.0892 20.5797 8.33329 25 8.33329C26.25 8.33329 27.5 8.47913 28.7291 8.77079L32.0833 5.41663C29.8125 4.60413 27.4166 4.16663 25 4.16663ZM39.5833 4.16663L31.25 12.5V15.625L25.9375 20.9375C25.625 20.8333 25.3125 20.8333 25 20.8333C23.8949 20.8333 22.8351 21.2723 22.0537 22.0537C21.2723 22.8351 20.8333 23.8949 20.8333 25C20.8333 26.105 21.2723 27.1648 22.0537 27.9462C22.8351 28.7276 23.8949 29.1666 25 29.1666C26.105 29.1666 27.1648 28.7276 27.9462 27.9462C28.7276 27.1648 29.1666 26.105 29.1666 25C29.1666 24.6875 29.1666 24.375 29.0625 24.0625L34.375 18.75H37.5L45.8333 10.4166H39.5833V4.16663ZM25 12.5C21.6848 12.5 18.5053 13.8169 16.1611 16.1611C13.8169 18.5053 12.5 21.6848 12.5 25C12.5 28.3152 13.8169 31.4946 16.1611 33.8388C18.5053 36.183 21.6848 37.5 25 37.5C28.3152 37.5 31.4946 36.183 33.8388 33.8388C36.183 31.4946 37.5 28.3152 37.5 25H33.3333C33.3333 27.2101 32.4553 29.3297 30.8925 30.8925C29.3297 32.4553 27.2101 33.3333 25 33.3333C22.7898 33.3333 20.6702 32.4553 19.1074 30.8925C17.5446 29.3297 16.6666 27.2101 16.6666 25C16.6666 22.7898 17.5446 20.6702 19.1074 19.1074C20.6702 17.5446 22.7898 16.6666 25 16.6666V12.5Z" fill="#111111"/>
</svg>
