<svg width="50" height="50" viewBox="0 0 50 50" fill="none" xmlns="http://www.w3.org/2000/svg">
<path d="M25 18.75C23.3424 18.75 21.7527 19.4085 20.5806 20.5806C19.4085 21.7527 18.75 23.3424 18.75 25C18.75 26.6576 19.4085 28.2473 20.5806 29.4194C21.7527 30.5915 23.3424 31.25 25 31.25C26.6576 31.25 28.2473 30.5915 29.4194 29.4194C30.5915 28.2473 31.25 26.6576 31.25 25C31.25 23.3424 30.5915 21.7527 29.4194 20.5806C28.2473 19.4085 26.6576 18.75 25 18.75ZM25 35.4167C22.2373 35.4167 19.5878 34.3192 17.6343 32.3657C15.6808 30.4122 14.5833 27.7627 14.5833 25C14.5833 22.2373 15.6808 19.5878 17.6343 17.6343C19.5878 15.6808 22.2373 14.5833 25 14.5833C27.7627 14.5833 30.4122 15.6808 32.3657 17.6343C34.3192 19.5878 35.4166 22.2373 35.4166 25C35.4166 27.7627 34.3192 30.4122 32.3657 32.3657C30.4122 34.3192 27.7627 35.4167 25 35.4167ZM25 9.375C14.5833 9.375 5.68748 15.8542 2.08331 25C5.68748 34.1458 14.5833 40.625 25 40.625C35.4166 40.625 44.3125 34.1458 47.9166 25C44.3125 15.8542 35.4166 9.375 25 9.375Z" fill="#111111"/>
</svg>
