<svg width="50" height="50" viewBox="0 0 50 50" fill="none" xmlns="http://www.w3.org/2000/svg">
<path d="M24.6458 18.75L31.25 25.3333V25C31.25 23.3424 30.5915 21.7527 29.4194 20.5806C28.2473 19.4085 26.6576 18.75 25 18.75H24.6458ZM15.6875 20.4167L18.9167 23.6458C18.8125 24.0833 18.75 24.5208 18.75 25C18.75 26.6576 19.4085 28.2473 20.5806 29.4194C21.7527 30.5915 23.3424 31.25 25 31.25C25.4583 31.25 25.9167 31.1875 26.3542 31.0833L29.5833 34.3125C28.1875 35 26.6458 35.4167 25 35.4167C22.2373 35.4167 19.5878 34.3192 17.6343 32.3657C15.6808 30.4122 14.5833 27.7627 14.5833 25C14.5833 23.3542 15 21.8125 15.6875 20.4167ZM4.16668 8.89583L8.91668 13.6458L9.85418 14.5833C6.41668 17.2917 3.70834 20.8333 2.08334 25C5.68751 34.1458 14.5833 40.625 25 40.625C28.2292 40.625 31.3125 40 34.125 38.875L35.0208 39.75L41.1042 45.8333L43.75 43.1875L6.81251 6.25M25 14.5833C27.7627 14.5833 30.4122 15.6808 32.3657 17.6343C34.3192 19.5878 35.4167 22.2373 35.4167 25C35.4167 26.3333 35.1458 27.625 34.6667 28.7917L40.7708 34.8958C43.8958 32.2917 46.3958 28.875 47.9167 25C44.3125 15.8542 35.4167 9.375 25 9.375C22.0833 9.375 19.2917 9.89583 16.6667 10.8333L21.1875 15.3125C22.375 14.8542 23.6458 14.5833 25 14.5833Z" fill="#111111"/>
</svg>
