<svg width="36" height="36" viewBox="0 0 36 36" fill="none" xmlns="http://www.w3.org/2000/svg">
<path d="M25.875 7.875H10.125C4.54219 7.875 0 12.4172 0 18C0 23.5828 4.54219 28.125 10.125 28.125H25.875C31.4578 28.125 36 23.5828 36 18C36 12.4172 31.4578 7.875 25.875 7.875ZM25.875 25.875C24.3175 25.875 22.7949 25.4131 21.4999 24.5478C20.2048 23.6825 19.1955 22.4526 18.5994 21.0136C18.0034 19.5747 17.8475 17.9913 18.1513 16.4637C18.4552 14.9361 19.2052 13.5329 20.3065 12.4315C21.4079 11.3302 22.8111 10.5802 24.3387 10.2763C25.8663 9.97246 27.4497 10.1284 28.8886 10.7244C30.3276 11.3205 31.5575 12.3298 32.4228 13.6249C33.2881 14.9199 33.75 16.4425 33.75 18C33.7478 20.0879 32.9174 22.0896 31.441 23.566C29.9646 25.0424 27.9629 25.8728 25.875 25.875Z" fill="#757575"/>
</svg>
