<svg width="38" height="38" viewBox="0 0 38 38" fill="none" xmlns="http://www.w3.org/2000/svg">
<g clip-path="url(#clip0_475_214)">
<path d="M9.81704 13.0031L7.97664 16.1908L6.13623 13.0031H9.81704Z" fill="#201E30"/>
<path d="M17.1786 19.3785L19.019 16.1909L20.8594 19.3785H17.1786Z" fill="#E2873B"/>
<path d="M20.8594 19.3785L19.019 22.5662L17.1786 19.3785H20.8594Z" fill="#E2873B"/>
<path d="M17.1786 25.7539L19.019 22.5661L20.8594 25.7539H17.1786Z" fill="#E2873B"/>
<path d="M20.8594 25.7539L19.019 28.9415L17.1786 25.7539H20.8594Z" fill="#E2873B"/>
<path d="M15.3383 16.1908L17.1787 13.0031L19.019 16.1908H15.3383Z" fill="#E2873B"/>
<path d="M19.019 16.1908L17.1787 19.3784L15.3383 16.1908H19.019Z" fill="#E2873B"/>
<path d="M15.3383 22.5662L17.1787 19.3785L19.019 22.5662H15.3383Z" fill="#E2873B"/>
<path d="M19.019 22.5661L17.1786 25.7538L15.3382 22.5661H19.019Z" fill="#E2873B"/>
<path d="M22.6998 16.1908L20.8594 13.0031L19.019 16.1908H22.6998Z" fill="#E2873B"/>
<path d="M19.019 16.1908L20.8594 19.3785L22.6999 16.1908H19.019Z" fill="#E2873B"/>
<path d="M22.6998 22.5662L20.8594 19.3785L19.019 22.5662H22.6998Z" fill="#E2873B"/>
<path d="M19.0191 22.5661L20.8595 25.7539L22.6999 22.5661H19.0191Z" fill="#E2873B"/>
<path d="M13.4978 13.0031L11.6574 16.1908L9.81696 13.0031H13.4978Z" fill="#C65B17"/>
<path d="M13.4979 19.3785L15.3383 16.1908L17.1787 19.3785H13.4979Z" fill="#C65B17"/>
<path d="M11.6574 16.1908L13.4978 13.0031L15.3382 16.1908H11.6574Z" fill="#C65B17"/>
<path d="M15.3382 16.1908L13.4978 19.3784L11.6573 16.1908H15.3382Z" fill="#C65B17"/>
<path d="M9.81702 13.0032L11.6574 9.81551L13.4978 13.0032H9.81702Z" fill="#C65B17"/>
<path d="M7.97656 16.1908L9.81697 13.0031L11.6574 16.1908H7.97656Z" fill="#C65B17"/>
<path d="M9.81702 19.3785L11.6574 16.1908L13.4978 19.3785H9.81702Z" fill="#C65B17"/>
<path d="M11.6574 16.1908L9.81703 19.3784L7.97662 16.1908H11.6574Z" fill="#C65B17"/>
<path d="M7.97656 22.5662L9.81697 19.3785L11.6574 22.5662H7.97656Z" fill="#C65B17"/>
<path d="M17.1786 25.7539L15.3382 28.9415L13.4978 25.7539H17.1786Z" fill="#C65B17"/>
<path d="M13.4979 25.7539L15.3383 22.5661L17.1787 25.7539H13.4979Z" fill="#C65B17"/>
<path d="M15.3382 22.5661L13.4978 25.7538L11.6574 22.5661H15.3382Z" fill="#C65B17"/>
<path d="M9.81702 25.7539L11.6574 22.5661L13.4978 25.7539H9.81702Z" fill="#C65B17"/>
<path d="M17.1786 19.3785L15.3382 22.5662L13.4978 19.3785H17.1786Z" fill="#C65B17"/>
<path d="M24.5403 13.0031L26.3807 16.1908L28.2211 13.0031H24.5403Z" fill="#C65B17"/>
<path d="M24.5402 19.3785L22.6998 16.1909L20.8594 19.3785H24.5402Z" fill="#C65B17"/>
<path d="M26.3807 16.1908L24.5403 13.0031L22.6999 16.1908H26.3807Z" fill="#C65B17"/>
<path d="M22.6999 16.1908L24.5403 19.3784L26.3807 16.1908H22.6999Z" fill="#C65B17"/>
<path d="M28.2211 13.0032L26.3807 9.81551L24.5403 13.0032H28.2211Z" fill="#C65B17"/>
<path d="M30.0616 16.1908L28.2211 13.0031L26.3807 16.1908H30.0616Z" fill="#C65B17"/>
<path d="M28.2211 19.3785L26.3806 16.1909L24.5402 19.3785H28.2211Z" fill="#C65B17"/>
<path d="M26.3807 16.1908L28.2211 19.3784L30.0616 16.1908H26.3807Z" fill="#C65B17"/>
<path d="M30.0616 22.5662L28.2211 19.3785L26.3807 22.5662H30.0616Z" fill="#C65B17"/>
<path d="M20.8594 25.7539L22.6999 28.9415L24.5403 25.7539H20.8594Z" fill="#C65B17"/>
<path d="M24.5402 25.7539L22.6998 22.5661L20.8594 25.7539H24.5402Z" fill="#C65B17"/>
<path d="M22.6998 22.5661L24.5402 25.7539L26.3806 22.5661H22.6998Z" fill="#C65B17"/>
<path d="M28.2211 25.7539L26.3807 22.5661L24.5403 25.7539H28.2211Z" fill="#C65B17"/>
<path d="M20.8595 19.3785L22.6999 22.5662L24.5403 19.3785H20.8595Z" fill="#C65B17"/>
<path d="M13.4978 25.7539L11.6574 28.9415L9.81702 25.7539H13.4978Z" fill="#201E30"/>
<path d="M11.6575 28.9415L13.4979 25.7539L15.3383 28.9415H11.6575Z" fill="#201E30"/>
<path d="M9.81702 6.62769L11.6574 3.44002L13.4978 6.62769H9.81702Z" fill="#201E30"/>
<path d="M13.4978 6.62776L11.6574 9.81543L9.81696 6.62776H13.4978Z" fill="#201E30"/>
<path d="M11.6574 9.81543L13.4978 6.62776L15.3382 9.81543H11.6574Z" fill="#201E30"/>
<path d="M7.97656 9.81543L9.81697 6.62776L11.6574 9.81543H7.97656Z" fill="#201E30"/>
<path d="M13.4978 13.0032L15.3382 9.81551L17.1786 13.0032H13.4978Z" fill="#201E30"/>
<path d="M17.1786 13.0031L15.3382 16.1908L13.4978 13.0031H17.1786Z" fill="#201E30"/>
<path d="M11.6574 9.81551L9.81697 13.0032L7.97656 9.81551H11.6574Z" fill="#201E30"/>
<path d="M15.3382 9.81551L13.4978 13.0032L11.6573 9.81551H15.3382Z" fill="#201E30"/>
<path d="M6.13617 19.3785L7.97658 16.1908L9.81698 19.3785H6.13617Z" fill="#201E30"/>
<path d="M9.81698 19.3785L7.97658 22.5662L6.13617 19.3785H9.81698Z" fill="#201E30"/>
<path d="M4.29578 22.5662L6.13618 19.3785L7.97659 22.5662H4.29578Z" fill="#201E30"/>
<path d="M6.13623 25.7539L7.97664 22.5661L9.81704 25.7539H6.13623Z" fill="#201E30"/>
<path d="M11.6574 22.5661L9.81697 25.7538L7.97656 22.5661H11.6574Z" fill="#201E30"/>
<path d="M6.13617 13.0032L7.97658 9.81551L9.81698 13.0032H6.13617Z" fill="#201E30"/>
<path d="M24.5402 25.7539L26.3807 28.9415L28.2211 25.7539H24.5402Z" fill="#201E30"/>
<path d="M26.3807 28.9415L24.5402 25.7539L22.6998 28.9415H26.3807Z" fill="#201E30"/>
<path d="M28.2211 6.62769L26.3807 3.44002L24.5403 6.62769H28.2211Z" fill="#201E30"/>
<path d="M24.5403 6.62776L26.3807 9.81543L28.2211 6.62776H24.5403Z" fill="#201E30"/>
<path d="M26.3807 9.81543L24.5403 6.62776L22.6999 9.81543H26.3807Z" fill="#201E30"/>
<path d="M30.0616 9.81543L28.2211 6.62776L26.3807 9.81543H30.0616Z" fill="#201E30"/>
<path d="M24.5403 13.0032L22.6999 9.81551L20.8594 13.0032H24.5403Z" fill="#201E30"/>
<path d="M20.8595 13.0031L22.6999 16.1908L24.5403 13.0031H20.8595Z" fill="#201E30"/>
<path d="M26.3807 9.81551L28.2211 13.0032L30.0616 9.81551H26.3807Z" fill="#201E30"/>
<path d="M22.6999 9.81551L24.5403 13.0032L26.3807 9.81551H22.6999Z" fill="#201E30"/>
<path d="M31.9019 19.3785L30.0615 16.1909L28.2211 19.3785H31.9019Z" fill="#201E30"/>
<path d="M28.2211 19.3785L30.0615 22.5662L31.9019 19.3785H28.2211Z" fill="#201E30"/>
<path d="M33.7423 22.5662L31.9018 19.3785L30.0614 22.5662H33.7423Z" fill="#201E30"/>
<path d="M31.9018 25.7539L30.0614 22.5661L28.221 25.7539H31.9018Z" fill="#201E30"/>
<path d="M26.3807 22.5661L28.2211 25.7539L30.0616 22.5661H26.3807Z" fill="#201E30"/>
<path d="M31.9019 13.0032L30.0615 9.81551L28.2211 13.0032H31.9019Z" fill="#201E30"/>
<path d="M28.2211 13.0031L30.0615 16.1908L31.9019 13.0031H28.2211Z" fill="#201E30"/>
<path d="M20.8594 13.0031L19.019 16.1908L17.1787 13.0031H20.8594Z" fill="#9C3B1E"/>
<path d="M17.1786 13.0032L19.019 9.81551L20.8594 13.0032H17.1786Z" fill="#9C3B1E"/>
<path d="M19.019 9.81551L17.1786 13.0032L15.3382 9.81551H19.019Z" fill="#9C3B1E"/>
<path d="M19.0191 9.81551L20.8595 13.0032L22.6999 9.81551H19.0191Z" fill="#9C3B1E"/>
<path d="M15.3383 28.9415L17.1787 25.7539L19.019 28.9415H15.3383Z" fill="#9C4C17"/>
<path d="M19.019 28.9415L17.1787 32.1292L15.3383 28.9415H19.019Z" fill="#9C4C17"/>
<path d="M17.1785 32.1292L19.0189 28.9415L20.8593 32.1292H17.1785Z" fill="#9C4C17"/>
<path d="M22.6998 28.9415L20.8594 25.7539L19.019 28.9415H22.6998Z" fill="#9C4C17"/>
<path d="M19.019 28.9415L20.8594 32.1292L22.6999 28.9415H19.019Z" fill="#9C4C17"/>
<path d="M11.6575 22.5662L13.4979 19.3785L15.3383 22.5662H11.6575Z" fill="#201E30"/>
<path d="M13.4978 19.3785L11.6574 22.5662L9.81702 19.3785H13.4978Z" fill="#201E30"/>
<path d="M26.3807 22.5662L24.5402 19.3785L22.6998 22.5662H26.3807Z" fill="#201E30"/>
<path d="M24.5402 19.3785L26.3807 22.5662L28.2211 19.3785H24.5402Z" fill="#201E30"/>
<path d="M20.8594 32.1291L19.019 35.3169L17.1787 32.1291H20.8594Z" fill="#201E30"/>
</g>
<defs>
<clipPath id="clip0_475_214">
<rect width="38" height="38" fill="white"/>
</clipPath>
</defs>
</svg>
