<svg width="25" height="25" viewBox="0 0 25 25" fill="none" xmlns="http://www.w3.org/2000/svg">
<g clip-path="url(#clip0_478_6172)">
<path d="M11.2983 11.8886C11.2608 10.1134 10.8846 8.36161 10.1899 6.7275C5.75626 8.79781 2.49943 12.7041 1.38615 17.3134C2.03766 18.8062 2.98247 20.1528 4.16447 21.2734C5.28851 17.3648 7.83294 14.0175 11.2983 11.8886ZM9.4965 5.32613C8.75387 4.03226 7.80748 2.86658 6.69376 1.87399C2.25041 4.30563 -0.376548 9.33981 0.590249 14.6767C2.22111 10.6191 5.39494 7.25485 9.4965 5.32613ZM18.6567 13.3877C19.0766 8.51461 17.3236 3.7441 13.8959 0.477501C13.1781 0.394494 11.3764 0.208947 9.06681 0.89254C11.8926 3.82069 13.521 7.69979 13.6322 11.7675C15.1883 12.6232 16.8938 13.1732 18.6567 13.3877ZM12.5678 13.8515C11.0491 14.7736 9.72001 15.9767 8.65177 17.3964C12.6557 20.1943 17.6606 21.0634 22.2016 19.7304C23.1784 18.4217 23.8794 16.9283 24.2621 15.3408C22.9709 15.6698 21.6444 15.8403 20.3119 15.8486C17.6459 15.8437 14.9945 15.1601 12.5678 13.8515ZM7.76798 18.7197C7.0258 19.9892 6.5131 21.3759 6.2006 22.831C8.36659 24.1604 10.8971 24.7719 13.4311 24.5781C15.9652 24.3843 18.3733 23.3952 20.3119 21.7519C14.7992 22.538 10.3852 20.541 7.76798 18.7197ZM16.5717 1.11227C19.2719 4.54977 20.6 8.98336 20.2143 13.4951C21.7018 13.4982 23.1803 13.2642 24.5942 12.8017C24.5942 12.7041 24.6088 12.6064 24.6088 12.5088C24.6088 7.24508 21.2543 2.78707 16.5717 1.11227Z" fill="#494848"/>
</g>
<defs>
<clipPath id="clip0_478_6172">
<rect width="25" height="25" fill="white"/>
</clipPath>
</defs>
</svg>
